# xmcd
#
# Track frame offsets:
#	150
#	23622
#	54652
#	77737
#	99297
#	112750
#	124857
#
# Disc length: 1933 seconds
#
# Revision: 1
# Processed by: cddbd v1.4PL0 Copyright (c) Steve Scherf et al.
# Submitted via: audiograbber 1.82.02
#
DISCID=48078b07
DTITLE=chic - tongue in chic
DYEAR=1982
DGENRE=soul
TTITLE0=hangin'
TTITLE1=i feel your love comin' on
TTITLE2=when you love someone
TTITLE3=chic (everybody say)
TTITLE4=hey fool
TTITLE5=sharing love
TTITLE6=city lights
EXTD=
EXTT0=
EXTT1=
EXTT2=
EXTT3=
EXTT4=
EXTT5=
EXTT6=
PLAYORDER=
